<?xml version="1.0" standalone="no"?>
<!DOCTYPE svg PUBLIC "-//W3C//DTD SVG 20010904//EN"
 "http://www.w3.org/TR/2001/REC-SVG-20010904/DTD/svg10.dtd">
<svg version="1.0" xmlns="http://www.w3.org/2000/svg"
 width="64.000000pt" height="64.000000pt" viewBox="0 0 64.000000 64.000000"
 preserveAspectRatio="xMidYMid meet">

<g transform="translate(0.000000,64.000000) scale(0.100000,-0.100000)"
fill="#ffffff" stroke="none">
<path d="M305 569 c-10 -14 36 -52 48 -40 5 5 7 17 5 27 -4 22 -43 31 -53 13z"/>
<path d="M260 521 c-7 -13 -29 -23 -67 -31 -32 -6 -65 -13 -75 -16 -18 -5 -83
-156 -80 -188 1 -25 31 -48 54 -43 9 3 29 -4 44 -14 29 -18 29 -18 50 9 l22
27 81 -40 81 -39 72 12 c63 11 73 11 80 -3 10 -16 45 -20 66 -7 10 7 10 28 -3
110 -8 56 -15 105 -15 108 0 4 -19 4 -42 1 -48 -6 -53 -4 -170 74 -81 55 -88
57 -98 40z m39 -30 c11 -7 8 -19 -15 -61 -31 -56 -44 -67 -69 -53 -13 8 -10
17 22 66 41 61 41 61 62 48z m-97 -53 c-11 -18 -35 -60 -54 -92 -37 -66 -61
-87 -79 -69 -9 9 -4 31 21 92 31 78 33 80 73 90 23 5 46 9 50 10 5 1 0 -14
-11 -31z m218 -29 c71 -45 80 -54 85 -87 4 -20 8 -47 11 -59 3 -19 -2 -23 -47
-32 -80 -17 -104 -14 -192 30 -90 46 -103 57 -83 77 11 12 23 12 71 1 56 -12
58 -12 76 12 12 16 15 27 8 34 -7 7 -16 3 -27 -12 -11 -15 -21 -20 -31 -14
-11 7 -8 18 14 55 15 25 29 46 32 46 2 0 40 -23 83 -51z m140 -110 c11 -76 9
-101 -7 -86 -3 4 -12 43 -18 87 -9 62 -9 80 1 80 7 0 16 -31 24 -81z m-380
-25 c0 -17 -17 -27 -35 -20 -12 4 -13 10 -3 31 9 19 14 22 25 14 7 -6 13 -17
13 -25z"/>
<path d="M86 218 c-19 -68 -23 -88 -19 -88 11 0 73 51 73 59 0 5 -11 16 -25
25 -20 13 -26 14 -29 4z"/>
</g>
</svg>
